<svg width="17" height="17" viewBox="0 0 17 17" fill="none" xmlns="http://www.w3.org/2000/svg">
<path d="M8.33333 0C3.73833 0 0 2.99083 0 6.66667C0 9.09 1.58167 11.2625 4.16667 12.445V16.6667L8.61667 13.3292C13.0808 13.21 16.6667 10.2667 16.6667 6.66667C16.6667 2.99083 12.9283 0 8.33333 0ZM8.33333 11.6667H8.05583L5.83333 13.3333V11.3192L5.29917 11.1133C3.05833 10.2508 1.66667 8.54667 1.66667 6.66667C1.66667 3.90917 4.6575 1.66667 8.33333 1.66667C12.0092 1.66667 15 3.90917 15 6.66667C15 9.42417 12.0092 11.6667 8.33333 11.6667Z" fill="#002D8B"/>
<path d="M4.16602 4.16663H12.4993V5.83329H4.16602V4.16663ZM4.16602 7.49996H9.99935V9.16663H4.16602V7.49996Z" fill="#002D8B"/>
</svg>
