<svg width="40" height="40" viewBox="0 0 40 40" fill="none" xmlns="http://www.w3.org/2000/svg">
<rect x="0.5" y="0.5" width="39" height="39" rx="4.5" stroke="#9A9A9A"/>
<path d="M12.2083 28.8334C12.2083 29.3859 12.4278 29.9158 12.8185 30.3065C13.2092 30.6972 13.7391 30.9167 14.2917 30.9167H24.7083C25.2609 30.9167 25.7908 30.6972 26.1815 30.3065C26.5722 29.9158 26.7917 29.3859 26.7917 28.8334V16.3334H28.875V14.25H24.7083V12.1667C24.7083 11.6142 24.4888 11.0843 24.0981 10.6936C23.7074 10.3029 23.1775 10.0834 22.625 10.0834H16.375C15.8225 10.0834 15.2926 10.3029 14.9019 10.6936C14.5112 11.0843 14.2917 11.6142 14.2917 12.1667V14.25H10.125V16.3334H12.2083V28.8334ZM16.375 12.1667H22.625V14.25H16.375V12.1667ZM15.3333 16.3334H24.7083V28.8334H14.2917V16.3334H15.3333Z" fill="#002D8B"/>
<path d="M16.375 18.4166H18.4583V26.75H16.375V18.4166ZM20.5417 18.4166H22.625V26.75H20.5417V18.4166Z" fill="#002D8B"/>
</svg>
