<svg width="268" height="537" viewBox="0 0 268 537" fill="none" xmlns="http://www.w3.org/2000/svg">
<circle cx="56.2339" cy="4.44676" r="4.44676" fill="#9AD4EE"/>
<circle cx="56.2339" cy="70.4468" r="4.44676" fill="#9AD4EE"/>
<circle cx="56.2339" cy="136.447" r="4.44676" fill="#9AD4EE"/>
<circle cx="56.2339" cy="37.4468" r="4.44676" fill="#9AD4EE"/>
<circle cx="56.2339" cy="103.447" r="4.44676" fill="#9AD4EE"/>
<circle cx="56.2339" cy="169.447" r="4.44676" fill="#9AD4EE"/>
<circle cx="56.2339" cy="202.447" r="4.44676" fill="#9AD4EE"/>
<circle cx="56.2339" cy="235.447" r="4.44676" fill="#9AD4EE"/>
<circle cx="56.2339" cy="268.447" r="4.44676" fill="#9AD4EE"/>
<circle cx="56.2339" cy="301.447" r="4.44676" fill="#9AD4EE"/>
<circle cx="56.2339" cy="334.447" r="4.44676" fill="#9AD4EE"/>
<circle cx="56.2339" cy="367.447" r="4.44676" fill="#9AD4EE"/>
<circle cx="56.2339" cy="400.447" r="4.44676" fill="#9AD4EE"/>
<circle cx="82.1274" cy="4.44676" r="4.44676" fill="#9AD4EE"/>
<circle cx="82.1274" cy="70.4468" r="4.44676" fill="#9AD4EE"/>
<circle cx="82.1274" cy="136.447" r="4.44676" fill="#9AD4EE"/>
<circle cx="82.1274" cy="37.4468" r="4.44676" fill="#9AD4EE"/>
<circle cx="82.1274" cy="103.447" r="4.44676" fill="#9AD4EE"/>
<circle cx="82.1274" cy="169.447" r="4.44676" fill="#9AD4EE"/>
<circle cx="82.1274" cy="202.447" r="4.44676" fill="#9AD4EE"/>
<circle cx="82.1274" cy="235.447" r="4.44676" fill="#9AD4EE"/>
<circle cx="82.1274" cy="268.447" r="4.44676" fill="#9AD4EE"/>
<circle cx="82.1274" cy="301.447" r="4.44676" fill="#9AD4EE"/>
<circle cx="82.1274" cy="334.447" r="4.44676" fill="#9AD4EE"/>
<circle cx="82.1274" cy="367.447" r="4.44676" fill="#9AD4EE"/>
<circle cx="82.1274" cy="400.447" r="4.44676" fill="#9AD4EE"/>
<circle cx="108.021" cy="4.44676" r="4.44676" fill="#9AD4EE"/>
<circle cx="108.021" cy="70.4468" r="4.44676" fill="#9AD4EE"/>
<circle cx="108.021" cy="136.447" r="4.44676" fill="#9AD4EE"/>
<circle cx="108.021" cy="37.4468" r="4.44676" fill="#9AD4EE"/>
<circle cx="108.021" cy="103.447" r="4.44676" fill="#9AD4EE"/>
<circle cx="108.021" cy="169.447" r="4.44676" fill="#9AD4EE"/>
<circle cx="108.021" cy="202.447" r="4.44676" fill="#9AD4EE"/>
<circle cx="108.021" cy="235.447" r="4.44676" fill="#9AD4EE"/>
<circle cx="108.021" cy="268.447" r="4.44676" fill="#9AD4EE"/>
<circle cx="108.021" cy="301.447" r="4.44676" fill="#9AD4EE"/>
<circle cx="108.021" cy="334.447" r="4.44676" fill="#9AD4EE"/>
<circle cx="108.021" cy="367.447" r="4.44676" fill="#9AD4EE"/>
<circle cx="108.021" cy="400.447" r="4.44676" fill="#9AD4EE"/>
<circle cx="133.915" cy="4.44676" r="4.44676" fill="#9AD4EE"/>
<circle cx="133.915" cy="70.4468" r="4.44676" fill="#9AD4EE"/>
<circle cx="133.915" cy="136.447" r="4.44676" fill="#9AD4EE"/>
<circle cx="133.915" cy="37.4468" r="4.44676" fill="#9AD4EE"/>
<circle cx="133.915" cy="103.447" r="4.44676" fill="#9AD4EE"/>
<circle cx="133.915" cy="169.447" r="4.44676" fill="#9AD4EE"/>
<circle cx="133.915" cy="202.447" r="4.44676" fill="#9AD4EE"/>
<circle cx="133.915" cy="235.447" r="4.44676" fill="#9AD4EE"/>
<circle cx="133.915" cy="268.447" r="4.44676" fill="#9AD4EE"/>
<circle cx="133.915" cy="301.447" r="4.44676" fill="#9AD4EE"/>
<circle cx="133.915" cy="334.447" r="4.44676" fill="#9AD4EE"/>
<circle cx="133.915" cy="367.447" r="4.44676" fill="#9AD4EE"/>
<circle cx="133.915" cy="400.447" r="4.44676" fill="#9AD4EE"/>
<circle cx="4.44676" cy="4.44676" r="4.44676" fill="#9AD4EE"/>
<circle cx="4.44676" cy="70.4468" r="4.44676" fill="#9AD4EE"/>
<circle cx="4.44676" cy="136.447" r="4.44676" fill="#9AD4EE"/>
<circle cx="4.44676" cy="37.4468" r="4.44676" fill="#9AD4EE"/>
<circle cx="4.44676" cy="103.447" r="4.44676" fill="#9AD4EE"/>
<circle cx="4.44676" cy="169.447" r="4.44676" fill="#9AD4EE"/>
<circle cx="4.44676" cy="202.447" r="4.44676" fill="#9AD4EE"/>
<circle cx="4.44676" cy="235.447" r="4.44676" fill="#9AD4EE"/>
<circle cx="4.44676" cy="268.447" r="4.44676" fill="#9AD4EE"/>
<circle cx="4.44676" cy="301.447" r="4.44676" fill="#9AD4EE"/>
<circle cx="4.44676" cy="334.447" r="4.44676" fill="#9AD4EE"/>
<circle cx="4.44676" cy="367.447" r="4.44676" fill="#9AD4EE"/>
<circle cx="4.44676" cy="400.447" r="4.44676" fill="#9AD4EE"/>
<circle cx="159.808" cy="4.44676" r="4.44676" fill="#9AD4EE"/>
<circle cx="185.447" cy="4.44676" r="4.44676" fill="#9AD4EE"/>
<circle cx="211.447" cy="4.44676" r="4.44676" fill="#9AD4EE"/>
<circle cx="237.447" cy="4.44676" r="4.44676" fill="#9AD4EE"/>
<circle cx="263.447" cy="4.44676" r="4.44676" fill="#9AD4EE"/>
<circle cx="159.808" cy="70.4468" r="4.44676" fill="#9AD4EE"/>
<circle cx="185.447" cy="70.4468" r="4.44676" fill="#9AD4EE"/>
<circle cx="211.447" cy="70.4468" r="4.44676" fill="#9AD4EE"/>
<circle cx="237.447" cy="70.4468" r="4.44676" fill="#9AD4EE"/>
<circle cx="263.447" cy="70.4468" r="4.44676" fill="#9AD4EE"/>
<circle cx="159.808" cy="136.447" r="4.44676" fill="#9AD4EE"/>
<circle cx="185.447" cy="136.447" r="4.44676" fill="#9AD4EE"/>
<circle cx="211.447" cy="136.447" r="4.44676" fill="#9AD4EE"/>
<circle cx="237.447" cy="136.447" r="4.44676" fill="#9AD4EE"/>
<circle cx="263.447" cy="136.447" r="4.44676" fill="#9AD4EE"/>
<circle cx="159.808" cy="37.4468" r="4.44676" fill="#9AD4EE"/>
<circle cx="185.447" cy="37.4468" r="4.44676" fill="#9AD4EE"/>
<circle cx="211.447" cy="37.4468" r="4.44676" fill="#9AD4EE"/>
<circle cx="237.447" cy="37.4468" r="4.44676" fill="#9AD4EE"/>
<circle cx="263.447" cy="37.4468" r="4.44676" fill="#9AD4EE"/>
<circle cx="159.808" cy="103.447" r="4.44676" fill="#9AD4EE"/>
<circle cx="185.447" cy="103.447" r="4.44676" fill="#9AD4EE"/>
<circle cx="211.447" cy="103.447" r="4.44676" fill="#9AD4EE"/>
<circle cx="237.447" cy="103.447" r="4.44676" fill="#9AD4EE"/>
<circle cx="263.447" cy="103.447" r="4.44676" fill="#9AD4EE"/>
<circle cx="159.808" cy="169.447" r="4.44676" fill="#9AD4EE"/>
<circle cx="159.808" cy="202.447" r="4.44676" fill="#9AD4EE"/>
<circle cx="159.808" cy="235.447" r="4.44676" fill="#9AD4EE"/>
<circle cx="159.808" cy="268.447" r="4.44676" fill="#9AD4EE"/>
<circle cx="159.808" cy="301.447" r="4.44676" fill="#9AD4EE"/>
<circle cx="159.808" cy="334.447" r="4.44676" fill="#9AD4EE"/>
<circle cx="159.808" cy="367.447" r="4.44676" fill="#9AD4EE"/>
<circle cx="159.808" cy="400.447" r="4.44676" fill="#9AD4EE"/>
<circle cx="185.447" cy="169.447" r="4.44676" fill="#9AD4EE"/>
<circle cx="185.447" cy="202.447" r="4.44676" fill="#9AD4EE"/>
<circle cx="185.447" cy="235.447" r="4.44676" fill="#9AD4EE"/>
<circle cx="185.447" cy="268.447" r="4.44676" fill="#9AD4EE"/>
<circle cx="185.447" cy="301.447" r="4.44676" fill="#9AD4EE"/>
<circle cx="185.447" cy="334.447" r="4.44676" fill="#9AD4EE"/>
<circle cx="185.447" cy="367.447" r="4.44676" fill="#9AD4EE"/>
<circle cx="185.447" cy="400.447" r="4.44676" fill="#9AD4EE"/>
<circle cx="211.447" cy="169.447" r="4.44676" fill="#9AD4EE"/>
<circle cx="211.447" cy="202.447" r="4.44676" fill="#9AD4EE"/>
<circle cx="211.447" cy="235.447" r="4.44676" fill="#9AD4EE"/>
<circle cx="211.447" cy="268.447" r="4.44676" fill="#9AD4EE"/>
<circle cx="211.447" cy="301.447" r="4.44676" fill="#9AD4EE"/>
<circle cx="211.447" cy="334.447" r="4.44676" fill="#9AD4EE"/>
<circle cx="211.447" cy="367.447" r="4.44676" fill="#9AD4EE"/>
<circle cx="211.447" cy="400.447" r="4.44676" fill="#9AD4EE"/>
<circle cx="237.447" cy="169.447" r="4.44676" fill="#9AD4EE"/>
<circle cx="237.447" cy="202.447" r="4.44676" fill="#9AD4EE"/>
<circle cx="237.447" cy="235.447" r="4.44676" fill="#9AD4EE"/>
<circle cx="237.447" cy="268.447" r="4.44676" fill="#9AD4EE"/>
<circle cx="237.447" cy="301.447" r="4.44676" fill="#9AD4EE"/>
<circle cx="237.447" cy="334.447" r="4.44676" fill="#9AD4EE"/>
<circle cx="237.447" cy="367.447" r="4.44676" fill="#9AD4EE"/>
<circle cx="237.447" cy="400.447" r="4.44676" fill="#9AD4EE"/>
<circle cx="263.447" cy="169.447" r="4.44676" fill="#9AD4EE"/>
<circle cx="263.447" cy="202.447" r="4.44676" fill="#9AD4EE"/>
<circle cx="263.447" cy="235.447" r="4.44676" fill="#9AD4EE"/>
<circle cx="263.447" cy="268.447" r="4.44676" fill="#9AD4EE"/>
<circle cx="263.447" cy="301.447" r="4.44676" fill="#9AD4EE"/>
<circle cx="263.447" cy="334.447" r="4.44676" fill="#9AD4EE"/>
<circle cx="263.447" cy="367.447" r="4.44676" fill="#9AD4EE"/>
<circle cx="263.447" cy="400.447" r="4.44676" fill="#9AD4EE"/>
<circle cx="30.3403" cy="4.44676" r="4.44676" fill="#9AD4EE"/>
<circle cx="30.3403" cy="70.4468" r="4.44676" fill="#9AD4EE"/>
<circle cx="30.3403" cy="136.447" r="4.44676" fill="#9AD4EE"/>
<circle cx="30.3403" cy="37.4468" r="4.44676" fill="#9AD4EE"/>
<circle cx="30.3403" cy="103.447" r="4.44676" fill="#9AD4EE"/>
<circle cx="30.3403" cy="169.447" r="4.44676" fill="#9AD4EE"/>
<circle cx="30.3403" cy="202.447" r="4.44676" fill="#9AD4EE"/>
<circle cx="30.3403" cy="235.447" r="4.44676" fill="#9AD4EE"/>
<circle cx="30.3403" cy="268.447" r="4.44676" fill="#9AD4EE"/>
<circle cx="30.3403" cy="301.447" r="4.44676" fill="#9AD4EE"/>
<circle cx="30.3403" cy="334.447" r="4.44676" fill="#9AD4EE"/>
<circle cx="30.3403" cy="367.447" r="4.44676" fill="#9AD4EE"/>
<circle cx="30.3403" cy="400.447" r="4.44676" fill="#9AD4EE"/>
<circle cx="56.2339" cy="433.447" r="4.44676" fill="#9AD4EE"/>
<circle cx="82.1274" cy="433.447" r="4.44676" fill="#9AD4EE"/>
<circle cx="108.021" cy="433.447" r="4.44676" fill="#9AD4EE"/>
<circle cx="133.915" cy="433.447" r="4.44676" fill="#9AD4EE"/>
<circle cx="4.44676" cy="433.447" r="4.44676" fill="#9AD4EE"/>
<circle cx="159.808" cy="433.447" r="4.44676" fill="#9AD4EE"/>
<circle cx="185.447" cy="433.447" r="4.44676" fill="#9AD4EE"/>
<circle cx="211.447" cy="433.447" r="4.44676" fill="#9AD4EE"/>
<circle cx="237.447" cy="433.447" r="4.44676" fill="#9AD4EE"/>
<circle cx="263.447" cy="433.447" r="4.44676" fill="#9AD4EE"/>
<circle cx="30.3403" cy="433.447" r="4.44676" fill="#9AD4EE"/>
<circle cx="56.2339" cy="466.447" r="4.44676" fill="#9AD4EE"/>
<circle cx="82.1274" cy="466.447" r="4.44676" fill="#9AD4EE"/>
<circle cx="108.021" cy="466.447" r="4.44676" fill="#9AD4EE"/>
<circle cx="133.915" cy="466.447" r="4.44676" fill="#9AD4EE"/>
<circle cx="4.44676" cy="466.447" r="4.44676" fill="#9AD4EE"/>
<circle cx="159.808" cy="466.447" r="4.44676" fill="#9AD4EE"/>
<circle cx="185.447" cy="466.447" r="4.44676" fill="#9AD4EE"/>
<circle cx="211.447" cy="466.447" r="4.44676" fill="#9AD4EE"/>
<circle cx="237.447" cy="466.447" r="4.44676" fill="#9AD4EE"/>
<circle cx="263.447" cy="466.447" r="4.44676" fill="#9AD4EE"/>
<circle cx="30.3403" cy="466.447" r="4.44676" fill="#9AD4EE"/>
<circle cx="56.2339" cy="499.447" r="4.44676" fill="#9AD4EE"/>
<circle cx="82.1274" cy="499.447" r="4.44676" fill="#9AD4EE"/>
<circle cx="108.021" cy="499.447" r="4.44676" fill="#9AD4EE"/>
<circle cx="133.915" cy="499.447" r="4.44676" fill="#9AD4EE"/>
<circle cx="4.44676" cy="499.447" r="4.44676" fill="#9AD4EE"/>
<circle cx="159.808" cy="499.447" r="4.44676" fill="#9AD4EE"/>
<circle cx="185.447" cy="499.447" r="4.44676" fill="#9AD4EE"/>
<circle cx="211.447" cy="499.447" r="4.44676" fill="#9AD4EE"/>
<circle cx="237.447" cy="499.447" r="4.44676" fill="#9AD4EE"/>
<circle cx="263.447" cy="499.447" r="4.44676" fill="#9AD4EE"/>
<circle cx="30.3403" cy="499.447" r="4.44676" fill="#9AD4EE"/>
<circle cx="56.2339" cy="532.447" r="4.44676" fill="#9AD4EE"/>
<circle cx="82.1274" cy="532.447" r="4.44676" fill="#9AD4EE"/>
<circle cx="108.021" cy="532.447" r="4.44676" fill="#9AD4EE"/>
<circle cx="133.915" cy="532.447" r="4.44676" fill="#9AD4EE"/>
<circle cx="4.44676" cy="532.447" r="4.44676" fill="#9AD4EE"/>
<circle cx="159.808" cy="532.447" r="4.44676" fill="#9AD4EE"/>
<circle cx="185.447" cy="532.447" r="4.44676" fill="#9AD4EE"/>
<circle cx="211.447" cy="532.447" r="4.44676" fill="#9AD4EE"/>
<circle cx="237.447" cy="532.447" r="4.44676" fill="#9AD4EE"/>
<circle cx="263.447" cy="532.447" r="4.44676" fill="#9AD4EE"/>
<circle cx="30.3403" cy="532.447" r="4.44676" fill="#9AD4EE"/>
</svg>
