<svg width="17" height="17" viewBox="0 0 17 17" fill="none" xmlns="http://www.w3.org/2000/svg">
<path d="M1.99902 11.1667H6.67569L5.73986 13.9726C5.57152 14.4792 5.65652 15.0409 5.96902 15.4742C6.28152 15.9076 6.78819 16.1667 7.32236 16.1667H8.66569C8.91319 16.1667 9.14736 16.0567 9.30652 15.8667L13.2232 11.1667H15.3324C16.2515 11.1667 16.999 10.4192 16.999 9.50008V2.00008C16.999 1.08092 16.2515 0.333415 15.3324 0.333415H4.24319C3.90412 0.334541 3.57337 0.438548 3.29467 0.631684C3.01598 0.824821 2.80247 1.09799 2.68236 1.41508L0.384857 7.54092C0.349973 7.63448 0.332191 7.73356 0.332357 7.83342V9.50008C0.332357 10.4192 1.07986 11.1667 1.99902 11.1667ZM15.3324 9.50008H13.6657V2.00008H15.3324V9.50008ZM1.99902 7.98425L4.24319 2.00008H11.999V10.0317L8.27569 14.5001H7.32069L8.62236 10.5976C8.66461 10.4723 8.6764 10.3388 8.65674 10.2081C8.63708 10.0773 8.58654 9.95317 8.50931 9.84588C8.43207 9.73859 8.33038 9.65125 8.21265 9.59111C8.09492 9.53098 7.96456 9.49977 7.83236 9.50008H1.99902V7.98425Z" fill="#002D8B"/>
</svg>
