<svg width="40" height="40" viewBox="0 0 40 40" fill="none" xmlns="http://www.w3.org/2000/svg">
<rect x="0.5" y="0.5" width="39" height="39" rx="4.5" stroke="#9A9A9A"/>
<path d="M12.0065 29.5866C12.0862 29.5962 12.1668 29.5962 12.2465 29.5866L16.2465 28.5866C16.4239 28.5444 16.5865 28.4545 16.7165 28.3266L29.0065 15.9966C29.379 15.6218 29.5881 15.1149 29.5881 14.5866C29.5881 14.0582 29.379 13.5513 29.0065 13.1766L27.4265 11.5866C27.2407 11.4006 27.0202 11.2531 26.7774 11.1525C26.5346 11.0518 26.2743 11 26.0115 11C25.7487 11 25.4884 11.0518 25.2456 11.1525C25.0028 11.2531 24.7822 11.4006 24.5965 11.5866L12.3065 23.8766C12.1773 24.0072 12.0842 24.1692 12.0365 24.3466L11.0365 28.3466C11.0005 28.476 10.991 28.6113 11.0085 28.7444C11.026 28.8776 11.0701 29.0058 11.1382 29.1215C11.2064 29.2373 11.2971 29.3381 11.405 29.418C11.513 29.4979 11.6359 29.5552 11.7665 29.5866C11.8462 29.5962 11.9268 29.5962 12.0065 29.5866ZM26.0065 12.9966L27.5965 14.5866L26.0065 16.1766L24.4265 14.5866L26.0065 12.9966ZM13.9165 25.0966L23.0065 15.9966L24.5965 17.5866L15.4965 26.6866L13.3865 27.2066L13.9165 25.0966Z" fill="#002D8B"/>
</svg>
