<svg width="72" height="67" viewBox="0 0 72 67" fill="none" xmlns="http://www.w3.org/2000/svg">
<rect y="-0.00012207" width="72" height="67" rx="12.5367" fill="#CAE0EA"/>
<rect x="2.5" y="2.49988" width="67" height="62" rx="10.0367" stroke="black" stroke-opacity="0.1" stroke-width="5"/>
<path d="M22.95 46.2165H22.3287L21.8893 46.6559L18.5 50.0452V19.9499C18.5 17.5058 20.5059 15.4999 22.95 15.4999H48.7333C51.1774 15.4999 53.1833 17.5058 53.1833 19.9499V41.7665C53.1833 44.2106 51.1774 46.2165 48.7333 46.2165H22.95Z" fill="#CAE0EA" stroke="#002D8B" stroke-width="3"/>
<path d="M33.8584 27.8837H37.8251V38.792H33.8584V27.8837Z" fill="#002D8B"/>
<path d="M35.8417 24.908C36.9371 24.908 37.8251 24.02 37.8251 22.9246C37.8251 21.8293 36.9371 20.9413 35.8417 20.9413C34.7464 20.9413 33.8584 21.8293 33.8584 22.9246C33.8584 24.02 34.7464 24.908 35.8417 24.908Z" fill="#002D8B"/>
</svg>
