<svg width="19" height="18" viewBox="0 0 19 18" fill="none" xmlns="http://www.w3.org/2000/svg">
<path d="M12.7578 8.59375L17.644 3.70752C18.2437 3.10791 18.2437 2.13574 17.644 1.53564L16.5581 0.449707C15.9585 -0.149902 14.9863 -0.149902 14.3862 0.449707L9.5 5.33594L4.61377 0.449707C4.01416 -0.149902 3.04199 -0.149902 2.44189 0.449707L1.35596 1.53564C0.756348 2.13525 0.756348 3.10742 1.35596 3.70752L6.24219 8.59375L1.35596 13.48C0.756348 14.0796 0.756348 15.0518 1.35596 15.6519L2.44189 16.7378C3.0415 17.3374 4.01416 17.3374 4.61377 16.7378L9.5 11.8516L14.3862 16.7378C14.9858 17.3374 15.9585 17.3374 16.5581 16.7378L17.644 15.6519C18.2437 15.0522 18.2437 14.0801 17.644 13.48L12.7578 8.59375Z" fill="#7C7C7C"/>
</svg>
