<svg width="25" height="27" viewBox="0 0 25 27" fill="none" xmlns="http://www.w3.org/2000/svg">
<path d="M1.24973 14.9889H2.49973V24.1978C2.49973 25.6489 3.62098 26.8289 4.99973 26.8289H19.9997C21.3785 26.8289 22.4997 25.6489 22.4997 24.1978V14.9889H23.7497C23.9969 14.9888 24.2385 14.9117 24.4441 14.7671C24.6496 14.6225 24.8097 14.4171 24.9043 14.1767C24.9989 13.9364 25.0237 13.6719 24.9755 13.4168C24.9273 13.1616 24.8082 12.9272 24.6335 12.7432L13.3835 0.90321C13.2675 0.780934 13.1297 0.683928 12.9781 0.617741C12.8265 0.551554 12.6639 0.517487 12.4997 0.517487C12.3356 0.517487 12.173 0.551554 12.0214 0.617741C11.8697 0.683928 11.732 0.780934 11.616 0.90321L0.365984 12.7432C0.191222 12.9272 0.0722138 13.1616 0.0240044 13.4168C-0.0242051 13.6719 0.000548689 13.9364 0.0951362 14.1767C0.189724 14.4171 0.349898 14.6225 0.55541 14.7671C0.760923 14.9117 1.00255 14.9888 1.24973 14.9889ZM9.99973 24.1978V17.62H14.9997V24.1978H9.99973ZM12.4997 3.69351L19.9997 11.5869V17.62L20.001 24.1978H17.4997V17.62C17.4997 16.169 16.3785 14.9889 14.9997 14.9889H9.99973C8.62098 14.9889 7.49973 16.169 7.49973 17.62V24.1978H4.99973V11.5869L12.4997 3.69351Z" fill="#002D8B"/>
</svg>
