<svg width="40" height="40" viewBox="0 0 40 40" fill="none" xmlns="http://www.w3.org/2000/svg">
<path d="M19.5 8C12.6075 8 7 12.4863 7 18C7 21.635 9.3725 24.895 13.25 26.6675V33L19.925 27.9938C26.6213 27.815 32 23.4 32 18C32 12.4863 26.3925 8 19.5 8ZM19.5 25.5H19.0837L15.75 28V24.9788L14.9488 24.67C11.5875 23.3763 9.5 20.82 9.5 18C9.5 13.8637 13.9863 10.5 19.5 10.5C25.0138 10.5 29.5 13.8637 29.5 18C29.5 22.1362 25.0138 25.5 19.5 25.5Z" fill="#002D8B"/>
<rect x="0.5" y="0.5" width="39" height="39" rx="4.5" stroke="#6177D5"/>
</svg>
