<svg width="40" height="40" viewBox="0 0 40 40" fill="none" xmlns="http://www.w3.org/2000/svg">
<path d="M28.75 21.9825V17.5C28.75 13.4788 26.0188 10.0912 22.3188 9.0725C21.9525 8.15 21.0575 7.5 20 7.5C18.9425 7.5 18.0475 8.15 17.6813 9.0725C13.9813 10.0925 11.25 13.4788 11.25 17.5V21.9825L9.11625 24.1163C8.99995 24.2321 8.90771 24.3699 8.84486 24.5215C8.782 24.6732 8.74976 24.8358 8.75 25V27.5C8.75 27.8315 8.8817 28.1495 9.11612 28.3839C9.35054 28.6183 9.66848 28.75 10 28.75H30C30.3315 28.75 30.6495 28.6183 30.8839 28.3839C31.1183 28.1495 31.25 27.8315 31.25 27.5V25C31.2502 24.8358 31.218 24.6732 31.1551 24.5215C31.0923 24.3699 31.0001 24.2321 30.8838 24.1163L28.75 21.9825ZM28.75 26.25H11.25V25.5175L13.3838 23.3837C13.5001 23.2679 13.5923 23.1301 13.6551 22.9785C13.718 22.8268 13.7502 22.6642 13.75 22.5V17.5C13.75 14.0538 16.5538 11.25 20 11.25C23.4463 11.25 26.25 14.0538 26.25 17.5V22.5C26.25 22.8325 26.3813 23.15 26.6163 23.3837L28.75 25.5175V26.25ZM20 32.5C20.7741 32.501 21.5293 32.2607 22.1606 31.8127C22.7919 31.3647 23.2679 30.7311 23.5225 30H16.4775C16.7321 30.7311 17.2081 31.3647 17.8394 31.8127C18.4707 32.2607 19.2259 32.501 20 32.5Z" fill="#002D8B"/>
<rect x="0.5" y="0.5" width="39" height="39" rx="4.5" stroke="#6177D5"/>
</svg>
