<svg width="21" height="19" viewBox="0 0 21 19" fill="none" xmlns="http://www.w3.org/2000/svg">
<path d="M0 6.19895H19.7917C20.0679 6.19895 20.3329 6.3078 20.5282 6.50155C20.7236 6.69531 20.8333 6.9581 20.8333 7.23211V17.5637C20.8333 17.8377 20.7236 18.1005 20.5282 18.2942C20.3329 18.488 20.0679 18.5968 19.7917 18.5968H1.04167C0.765399 18.5968 0.500447 18.488 0.305097 18.2942C0.109747 18.1005 0 17.8377 0 17.5637V6.19895ZM1.04167 0H16.6667V4.13263H0V1.03316C0 0.759148 0.109747 0.49636 0.305097 0.302605C0.500447 0.10885 0.765399 0 1.04167 0ZM13.5417 11.3647V13.4311H16.6667V11.3647H13.5417Z" fill="#0D186F"/>
</svg>
