<svg width="74.1px" height="68.96px" viewBox="0 0 75 69" fill="none" xmlns="http://www.w3.org/2000/svg">
<rect width="74.1044" height="68.9583" rx="12.9031" fill="#CAE0EA"/>
<rect x="2.57307" y="2.57307" width="68.9583" height="63.8121" rx="10.33" stroke="black" stroke-opacity="0.1" stroke-width="5.14614"/>
<path d="M15 17.4961V20.8767H52.1868V47.9217H28.5225V51.3023H58.948V47.9217H55.5674V17.4961H15ZM21.7646 22.567C19.973 22.5733 18.2566 23.2875 16.9894 24.554C15.7222 25.8206 15.0071 27.5367 15 29.3283C15 33.0452 18.0493 36.0895 21.7646 36.0895C23.5553 36.0824 25.2706 35.3676 26.5365 34.1011C27.8024 32.8346 28.5162 31.1189 28.5225 29.3283C28.5225 25.6146 25.4765 22.567 21.7646 22.567ZM31.9031 24.2573V27.6379H40.3546V24.2573H31.9031ZM43.7353 24.2573V27.6379H48.8062V24.2573H43.7353ZM21.7646 25.9476C23.6476 25.9476 25.1419 27.4402 25.1419 29.3283C25.1419 31.2214 23.6493 32.7089 21.7646 32.7089C19.8715 32.7089 18.3806 31.2214 18.3806 29.3283C18.3806 27.4402 19.8732 25.9476 21.7646 25.9476ZM31.9031 31.0186V34.3992H48.8062V31.0186H31.9031ZM15 37.7798V51.3023H18.3806V41.1604H23.4515V51.3023H26.8322V42.2726L30.321 44.1185C31.3098 44.6425 32.4981 44.6408 33.4852 44.1185V44.1218L39.452 40.966L37.875 37.9742L31.9065 41.13L26.6733 38.368C25.9429 37.9822 25.1295 37.7803 24.3035 37.7798H15Z" fill="#002D8B"/>
</svg>
