<svg width="394" height="24" viewBox="0 0 394 24" fill="none" xmlns="http://www.w3.org/2000/svg">
<path d="M145.422 15.154H141.639L140.989 17H139.442L142.679 7.952H144.395L147.632 17H146.072L145.422 15.154ZM145.006 13.945L143.537 9.746L142.055 13.945H145.006ZM151.171 7.38V17H149.689V7.38H151.171ZM155.249 7.38V17H153.767V7.38H155.249ZM163.354 10.877C163.571 10.513 163.857 10.2313 164.212 10.032C164.576 9.824 165.005 9.72 165.499 9.72V11.254H165.122C164.541 11.254 164.099 11.4013 163.796 11.696C163.501 11.9907 163.354 12.502 163.354 13.23V17H161.872V9.837H163.354V10.877ZM168.265 8.888C167.996 8.888 167.771 8.797 167.589 8.615C167.407 8.433 167.316 8.20767 167.316 7.939C167.316 7.67033 167.407 7.445 167.589 7.263C167.771 7.081 167.996 6.99 168.265 6.99C168.525 6.99 168.746 7.081 168.928 7.263C169.11 7.445 169.201 7.67033 169.201 7.939C169.201 8.20767 169.11 8.433 168.928 8.615C168.746 8.797 168.525 8.888 168.265 8.888ZM168.993 9.837V17H167.511V9.837H168.993ZM174.475 9.72C175.03 9.72 175.519 9.83267 175.944 10.058C176.377 10.2747 176.715 10.5477 176.958 10.877V9.837H178.453V17.117C178.453 17.7757 178.314 18.3607 178.037 18.872C177.76 19.392 177.357 19.7993 176.828 20.094C176.308 20.3887 175.684 20.536 174.956 20.536C173.985 20.536 173.179 20.3063 172.538 19.847C171.897 19.3963 171.533 18.781 171.446 18.001H172.915C173.028 18.3737 173.266 18.6727 173.63 18.898C174.003 19.132 174.445 19.249 174.956 19.249C175.554 19.249 176.035 19.067 176.399 18.703C176.772 18.339 176.958 17.8103 176.958 17.117V15.921C176.707 16.259 176.364 16.545 175.931 16.779C175.506 17.0043 175.021 17.117 174.475 17.117C173.851 17.117 173.279 16.961 172.759 16.649C172.248 16.3283 171.84 15.8863 171.537 15.323C171.242 14.751 171.095 14.1053 171.095 13.386C171.095 12.6667 171.242 12.0297 171.537 11.475C171.84 10.9203 172.248 10.4913 172.759 10.188C173.279 9.876 173.851 9.72 174.475 9.72ZM176.958 13.412C176.958 12.918 176.854 12.489 176.646 12.125C176.447 11.761 176.182 11.4837 175.853 11.293C175.524 11.1023 175.168 11.007 174.787 11.007C174.406 11.007 174.05 11.1023 173.721 11.293C173.392 11.475 173.123 11.748 172.915 12.112C172.716 12.4673 172.616 12.892 172.616 13.386C172.616 13.88 172.716 14.3133 172.915 14.686C173.123 15.0587 173.392 15.3447 173.721 15.544C174.059 15.7347 174.414 15.83 174.787 15.83C175.168 15.83 175.524 15.7347 175.853 15.544C176.182 15.3533 176.447 15.076 176.646 14.712C176.854 14.3393 176.958 13.906 176.958 13.412ZM184.754 9.72C185.3 9.72 185.786 9.837 186.21 10.071C186.644 10.305 186.982 10.6517 187.224 11.111C187.476 11.5703 187.601 12.125 187.601 12.775V17H186.132V12.996C186.132 12.3547 185.972 11.865 185.651 11.527C185.331 11.1803 184.893 11.007 184.338 11.007C183.784 11.007 183.342 11.1803 183.012 11.527C182.692 11.865 182.531 12.3547 182.531 12.996V17H181.049V7.38H182.531V10.669C182.783 10.3657 183.099 10.1317 183.48 9.967C183.87 9.80233 184.295 9.72 184.754 9.72ZM191.871 11.046V15.011C191.871 15.2797 191.931 15.4747 192.053 15.596C192.183 15.7087 192.399 15.765 192.703 15.765H193.613V17H192.443C191.775 17 191.264 16.844 190.909 16.532C190.553 16.22 190.376 15.713 190.376 15.011V11.046H189.531V9.837H190.376V8.056H191.871V9.837H193.613V11.046H191.871ZM198.229 17.117C197.665 17.117 197.158 17.0173 196.708 16.818C196.266 16.61 195.915 16.3327 195.655 15.986C195.395 15.6307 195.256 15.2363 195.239 14.803H196.773C196.799 15.1063 196.942 15.362 197.202 15.57C197.47 15.7693 197.804 15.869 198.203 15.869C198.619 15.869 198.939 15.791 199.165 15.635C199.399 15.4703 199.516 15.2623 199.516 15.011C199.516 14.7423 199.386 14.543 199.126 14.413C198.874 14.283 198.471 14.14 197.917 13.984C197.379 13.8367 196.942 13.6937 196.604 13.555C196.266 13.4163 195.971 13.204 195.72 12.918C195.477 12.632 195.356 12.255 195.356 11.787C195.356 11.4057 195.468 11.059 195.694 10.747C195.919 10.4263 196.24 10.175 196.656 9.993C197.08 9.811 197.566 9.72 198.112 9.72C198.926 9.72 199.581 9.928 200.075 10.344C200.577 10.7513 200.846 11.3103 200.881 12.021H199.399C199.373 11.7003 199.243 11.4447 199.009 11.254C198.775 11.0633 198.458 10.968 198.06 10.968C197.67 10.968 197.371 11.0417 197.163 11.189C196.955 11.3363 196.851 11.5313 196.851 11.774C196.851 11.9647 196.92 12.125 197.059 12.255C197.197 12.385 197.366 12.489 197.566 12.567C197.765 12.6363 198.06 12.7273 198.45 12.84C198.97 12.9787 199.394 13.1217 199.724 13.269C200.062 13.4077 200.352 13.6157 200.595 13.893C200.837 14.1703 200.963 14.5387 200.972 14.998C200.972 15.4053 200.859 15.7693 200.634 16.09C200.408 16.4107 200.088 16.662 199.672 16.844C199.264 17.026 198.783 17.117 198.229 17.117ZM208.732 10.877C208.949 10.513 209.235 10.2313 209.59 10.032C209.954 9.824 210.383 9.72 210.877 9.72V11.254H210.5C209.919 11.254 209.477 11.4013 209.174 11.696C208.879 11.9907 208.732 12.502 208.732 13.23V17H207.25V9.837H208.732V10.877ZM219.454 13.243C219.454 13.5117 219.437 13.7543 219.402 13.971H213.929C213.973 14.543 214.185 15.0023 214.566 15.349C214.948 15.6957 215.416 15.869 215.97 15.869C216.768 15.869 217.331 15.5353 217.66 14.868H219.259C219.043 15.5267 218.648 16.0683 218.076 16.493C217.513 16.909 216.811 17.117 215.97 17.117C215.286 17.117 214.67 16.9653 214.124 16.662C213.587 16.35 213.162 15.9167 212.85 15.362C212.547 14.7987 212.395 14.1487 212.395 13.412C212.395 12.6753 212.543 12.0297 212.837 11.475C213.141 10.9117 213.561 10.4783 214.098 10.175C214.644 9.87167 215.268 9.72 215.97 9.72C216.646 9.72 217.249 9.86733 217.777 10.162C218.306 10.4567 218.718 10.8727 219.012 11.41C219.307 11.9387 219.454 12.5497 219.454 13.243ZM217.907 12.775C217.899 12.229 217.704 11.7913 217.322 11.462C216.941 11.1327 216.469 10.968 215.905 10.968C215.394 10.968 214.956 11.1327 214.592 11.462C214.228 11.7827 214.012 12.2203 213.942 12.775H217.907ZM224.163 17.117C223.599 17.117 223.092 17.0173 222.642 16.818C222.2 16.61 221.849 16.3327 221.589 15.986C221.329 15.6307 221.19 15.2363 221.173 14.803H222.707C222.733 15.1063 222.876 15.362 223.136 15.57C223.404 15.7693 223.738 15.869 224.137 15.869C224.553 15.869 224.873 15.791 225.099 15.635C225.333 15.4703 225.45 15.2623 225.45 15.011C225.45 14.7423 225.32 14.543 225.06 14.413C224.808 14.283 224.405 14.14 223.851 13.984C223.313 13.8367 222.876 13.6937 222.538 13.555C222.2 13.4163 221.905 13.204 221.654 12.918C221.411 12.632 221.29 12.255 221.29 11.787C221.29 11.4057 221.402 11.059 221.628 10.747C221.853 10.4263 222.174 10.175 222.59 9.993C223.014 9.811 223.5 9.72 224.046 9.72C224.86 9.72 225.515 9.928 226.009 10.344C226.511 10.7513 226.78 11.3103 226.815 12.021H225.333C225.307 11.7003 225.177 11.4447 224.943 11.254C224.709 11.0633 224.392 10.968 223.994 10.968C223.604 10.968 223.305 11.0417 223.097 11.189C222.889 11.3363 222.785 11.5313 222.785 11.774C222.785 11.9647 222.854 12.125 222.993 12.255C223.131 12.385 223.3 12.489 223.5 12.567C223.699 12.6363 223.994 12.7273 224.384 12.84C224.904 12.9787 225.328 13.1217 225.658 13.269C225.996 13.4077 226.286 13.6157 226.529 13.893C226.771 14.1703 226.897 14.5387 226.906 14.998C226.906 15.4053 226.793 15.7693 226.568 16.09C226.342 16.4107 226.022 16.662 225.606 16.844C225.198 17.026 224.717 17.117 224.163 17.117ZM235.722 13.243C235.722 13.5117 235.705 13.7543 235.67 13.971H230.197C230.24 14.543 230.453 15.0023 230.834 15.349C231.215 15.6957 231.683 15.869 232.238 15.869C233.035 15.869 233.599 15.5353 233.928 14.868H235.527C235.31 15.5267 234.916 16.0683 234.344 16.493C233.781 16.909 233.079 17.117 232.238 17.117C231.553 17.117 230.938 16.9653 230.392 16.662C229.855 16.35 229.43 15.9167 229.118 15.362C228.815 14.7987 228.663 14.1487 228.663 13.412C228.663 12.6753 228.81 12.0297 229.105 11.475C229.408 10.9117 229.829 10.4783 230.366 10.175C230.912 9.87167 231.536 9.72 232.238 9.72C232.914 9.72 233.516 9.86733 234.045 10.162C234.574 10.4567 234.985 10.8727 235.28 11.41C235.575 11.9387 235.722 12.5497 235.722 13.243ZM234.175 12.775C234.166 12.229 233.971 11.7913 233.59 11.462C233.209 11.1327 232.736 10.968 232.173 10.968C231.662 10.968 231.224 11.1327 230.86 11.462C230.496 11.7827 230.279 12.2203 230.21 12.775H234.175ZM239.312 10.877C239.529 10.513 239.815 10.2313 240.17 10.032C240.534 9.824 240.963 9.72 241.457 9.72V11.254H241.08C240.5 11.254 240.058 11.4013 239.754 11.696C239.46 11.9907 239.312 12.502 239.312 13.23V17H237.83V9.837H239.312V10.877ZM246.239 15.674L248.267 9.837H249.84L247.11 17H245.342L242.625 9.837H244.211L246.239 15.674ZM258.175 13.243C258.175 13.5117 258.158 13.7543 258.123 13.971H252.65C252.693 14.543 252.906 15.0023 253.287 15.349C253.668 15.6957 254.136 15.869 254.691 15.869C255.488 15.869 256.052 15.5353 256.381 14.868H257.98C257.763 15.5267 257.369 16.0683 256.797 16.493C256.234 16.909 255.532 17.117 254.691 17.117C254.006 17.117 253.391 16.9653 252.845 16.662C252.308 16.35 251.883 15.9167 251.571 15.362C251.268 14.7987 251.116 14.1487 251.116 13.412C251.116 12.6753 251.263 12.0297 251.558 11.475C251.861 10.9117 252.282 10.4783 252.819 10.175C253.365 9.87167 253.989 9.72 254.691 9.72C255.367 9.72 255.969 9.86733 256.498 10.162C257.027 10.4567 257.438 10.8727 257.733 11.41C258.028 11.9387 258.175 12.5497 258.175 13.243ZM256.628 12.775C256.619 12.229 256.424 11.7913 256.043 11.462C255.662 11.1327 255.189 10.968 254.626 10.968C254.115 10.968 253.677 11.1327 253.313 11.462C252.949 11.7827 252.732 12.2203 252.663 12.775H256.628ZM259.789 13.386C259.789 12.6667 259.937 12.0297 260.231 11.475C260.535 10.9203 260.942 10.4913 261.453 10.188C261.973 9.876 262.55 9.72 263.182 9.72C263.65 9.72 264.11 9.824 264.56 10.032C265.02 10.2313 265.384 10.5 265.652 10.838V7.38H267.147V17H265.652V15.921C265.41 16.2677 265.072 16.5537 264.638 16.779C264.214 17.0043 263.724 17.117 263.169 17.117C262.545 17.117 261.973 16.961 261.453 16.649C260.942 16.3283 260.535 15.8863 260.231 15.323C259.937 14.751 259.789 14.1053 259.789 13.386ZM265.652 13.412C265.652 12.918 265.548 12.489 265.34 12.125C265.141 11.761 264.877 11.4837 264.547 11.293C264.218 11.1023 263.863 11.007 263.481 11.007C263.1 11.007 262.745 11.1023 262.415 11.293C262.086 11.475 261.817 11.748 261.609 12.112C261.41 12.4673 261.31 12.892 261.31 13.386C261.31 13.88 261.41 14.3133 261.609 14.686C261.817 15.0587 262.086 15.3447 262.415 15.544C262.753 15.7347 263.109 15.83 263.481 15.83C263.863 15.83 264.218 15.7347 264.547 15.544C264.877 15.3533 265.141 15.076 265.34 14.712C265.548 14.3393 265.652 13.906 265.652 13.412Z" fill="#3764C2"/>
<path d="M293.812 7.965V9.174H291.407V17H289.925V9.174H287.507V7.965H293.812ZM302.528 13.243C302.528 13.5117 302.511 13.7543 302.476 13.971H297.003C297.046 14.543 297.259 15.0023 297.64 15.349C298.021 15.6957 298.489 15.869 299.044 15.869C299.841 15.869 300.405 15.5353 300.734 14.868H302.333C302.116 15.5267 301.722 16.0683 301.15 16.493C300.587 16.909 299.885 17.117 299.044 17.117C298.359 17.117 297.744 16.9653 297.198 16.662C296.661 16.35 296.236 15.9167 295.924 15.362C295.621 14.7987 295.469 14.1487 295.469 13.412C295.469 12.6753 295.616 12.0297 295.911 11.475C296.214 10.9117 296.635 10.4783 297.172 10.175C297.718 9.87167 298.342 9.72 299.044 9.72C299.72 9.72 300.322 9.86733 300.851 10.162C301.38 10.4567 301.791 10.8727 302.086 11.41C302.381 11.9387 302.528 12.5497 302.528 13.243ZM300.981 12.775C300.972 12.229 300.777 11.7913 300.396 11.462C300.015 11.1327 299.542 10.968 298.979 10.968C298.468 10.968 298.03 11.1327 297.666 11.462C297.302 11.7827 297.085 12.2203 297.016 12.775H300.981ZM306.118 10.877C306.335 10.513 306.621 10.2313 306.976 10.032C307.34 9.824 307.769 9.72 308.263 9.72V11.254H307.886C307.306 11.254 306.864 11.4013 306.56 11.696C306.266 11.9907 306.118 12.502 306.118 13.23V17H304.636V9.837H306.118V10.877ZM318.947 9.72C319.51 9.72 320.013 9.837 320.455 10.071C320.905 10.305 321.256 10.6517 321.508 11.111C321.768 11.5703 321.898 12.125 321.898 12.775V17H320.429V12.996C320.429 12.3547 320.268 11.865 319.948 11.527C319.627 11.1803 319.189 11.007 318.635 11.007C318.08 11.007 317.638 11.1803 317.309 11.527C316.988 11.865 316.828 12.3547 316.828 12.996V17H315.359V12.996C315.359 12.3547 315.198 11.865 314.878 11.527C314.557 11.1803 314.119 11.007 313.565 11.007C313.01 11.007 312.568 11.1803 312.239 11.527C311.918 11.865 311.758 12.3547 311.758 12.996V17H310.276V9.837H311.758V10.656C312 10.3613 312.308 10.1317 312.681 9.967C313.053 9.80233 313.452 9.72 313.877 9.72C314.449 9.72 314.96 9.84133 315.411 10.084C315.861 10.3267 316.208 10.6777 316.451 11.137C316.667 10.7037 317.005 10.3613 317.465 10.11C317.924 9.85 318.418 9.72 318.947 9.72ZM327.033 17.117C326.47 17.117 325.963 17.0173 325.512 16.818C325.07 16.61 324.719 16.3327 324.459 15.986C324.199 15.6307 324.061 15.2363 324.043 14.803H325.577C325.603 15.1063 325.746 15.362 326.006 15.57C326.275 15.7693 326.609 15.869 327.007 15.869C327.423 15.869 327.744 15.791 327.969 15.635C328.203 15.4703 328.32 15.2623 328.32 15.011C328.32 14.7423 328.19 14.543 327.93 14.413C327.679 14.283 327.276 14.14 326.721 13.984C326.184 13.8367 325.746 13.6937 325.408 13.555C325.07 13.4163 324.776 13.204 324.524 12.918C324.282 12.632 324.16 12.255 324.16 11.787C324.16 11.4057 324.273 11.059 324.498 10.747C324.724 10.4263 325.044 10.175 325.46 9.993C325.885 9.811 326.37 9.72 326.916 9.72C327.731 9.72 328.385 9.928 328.879 10.344C329.382 10.7513 329.651 11.3103 329.685 12.021H328.203C328.177 11.7003 328.047 11.4447 327.813 11.254C327.579 11.0633 327.263 10.968 326.864 10.968C326.474 10.968 326.175 11.0417 325.967 11.189C325.759 11.3363 325.655 11.5313 325.655 11.774C325.655 11.9647 325.725 12.125 325.863 12.255C326.002 12.385 326.171 12.489 326.37 12.567C326.57 12.6363 326.864 12.7273 327.254 12.84C327.774 12.9787 328.199 13.1217 328.528 13.269C328.866 13.4077 329.157 13.6157 329.399 13.893C329.642 14.1703 329.768 14.5387 329.776 14.998C329.776 15.4053 329.664 15.7693 329.438 16.09C329.213 16.4107 328.892 16.662 328.476 16.844C328.069 17.026 327.588 17.117 327.033 17.117Z" fill="#3764C2"/>
<path d="M349.293 10.656C349.293 11.1153 349.185 11.5487 348.968 11.956C348.751 12.3633 348.405 12.697 347.928 12.957C347.451 13.2083 346.84 13.334 346.095 13.334H344.457V17H342.975V7.965H346.095C346.788 7.965 347.373 8.08633 347.85 8.329C348.335 8.563 348.695 8.88367 348.929 9.291C349.172 9.69833 349.293 10.1533 349.293 10.656ZM346.095 12.125C346.658 12.125 347.079 11.9993 347.356 11.748C347.633 11.488 347.772 11.124 347.772 10.656C347.772 9.668 347.213 9.174 346.095 9.174H344.457V12.125H346.095ZM352.838 10.877C353.055 10.513 353.341 10.2313 353.696 10.032C354.06 9.824 354.489 9.72 354.983 9.72V11.254H354.606C354.026 11.254 353.584 11.4013 353.28 11.696C352.986 11.9907 352.838 12.502 352.838 13.23V17H351.356V9.837H352.838V10.877ZM357.75 8.888C357.481 8.888 357.256 8.797 357.074 8.615C356.892 8.433 356.801 8.20767 356.801 7.939C356.801 7.67033 356.892 7.445 357.074 7.263C357.256 7.081 357.481 6.99 357.75 6.99C358.01 6.99 358.231 7.081 358.413 7.263C358.595 7.445 358.686 7.67033 358.686 7.939C358.686 8.20767 358.595 8.433 358.413 8.615C358.231 8.797 358.01 8.888 357.75 8.888ZM358.478 9.837V17H356.996V9.837H358.478ZM363.842 15.674L365.87 9.837H367.443L364.713 17H362.945L360.228 9.837H361.814L363.842 15.674ZM368.72 13.386C368.72 12.6667 368.867 12.0297 369.162 11.475C369.465 10.9203 369.872 10.4913 370.384 10.188C370.904 9.876 371.476 9.72 372.1 9.72C372.663 9.72 373.153 9.83267 373.569 10.058C373.993 10.2747 374.331 10.5477 374.583 10.877V9.837H376.078V17H374.583V15.934C374.331 16.272 373.989 16.5537 373.556 16.779C373.122 17.0043 372.628 17.117 372.074 17.117C371.458 17.117 370.895 16.961 370.384 16.649C369.872 16.3283 369.465 15.8863 369.162 15.323C368.867 14.751 368.72 14.1053 368.72 13.386ZM374.583 13.412C374.583 12.918 374.479 12.489 374.271 12.125C374.071 11.761 373.807 11.4837 373.478 11.293C373.148 11.1023 372.793 11.007 372.412 11.007C372.03 11.007 371.675 11.1023 371.346 11.293C371.016 11.475 370.748 11.748 370.54 12.112C370.34 12.4673 370.241 12.892 370.241 13.386C370.241 13.88 370.34 14.3133 370.54 14.686C370.748 15.0587 371.016 15.3447 371.346 15.544C371.684 15.7347 372.039 15.83 372.412 15.83C372.793 15.83 373.148 15.7347 373.478 15.544C373.807 15.3533 374.071 15.076 374.271 14.712C374.479 14.3393 374.583 13.906 374.583 13.412ZM378.18 13.412C378.18 12.6753 378.328 12.0297 378.622 11.475C378.926 10.9117 379.342 10.4783 379.87 10.175C380.399 9.87167 381.006 9.72 381.69 9.72C382.557 9.72 383.272 9.928 383.835 10.344C384.407 10.7513 384.793 11.3363 384.992 12.099H383.393C383.263 11.7437 383.055 11.4663 382.769 11.267C382.483 11.0677 382.124 10.968 381.69 10.968C381.084 10.968 380.598 11.1847 380.234 11.618C379.879 12.0427 379.701 12.6407 379.701 13.412C379.701 14.1833 379.879 14.7857 380.234 15.219C380.598 15.6523 381.084 15.869 381.69 15.869C382.548 15.869 383.116 15.492 383.393 14.738H384.992C384.784 15.466 384.394 16.0467 383.822 16.48C383.25 16.9047 382.54 17.117 381.69 17.117C381.006 17.117 380.399 16.9653 379.87 16.662C379.342 16.35 378.926 15.9167 378.622 15.362C378.328 14.7987 378.18 14.1487 378.18 13.412ZM393.567 9.837L389.173 20.367H387.639L389.095 16.883L386.274 9.837H387.925L389.94 15.297L392.033 9.837H393.567Z" fill="#3764C2"/>
<path d="M72.8153 7.3145H74.4357L76.9055 11.6124H77.0071L79.4769 7.3145H81.0973L77.6672 13.0574V16.769H76.2453V13.0574L72.8153 7.3145ZM84.1522 16.9122C83.4874 16.9122 82.9073 16.7598 82.4118 16.4551C81.9163 16.1504 81.5316 15.7242 81.2577 15.1764C80.9838 14.6285 80.8468 13.9884 80.8468 13.2559C80.8468 12.5203 80.9838 11.8771 81.2577 11.3262C81.5316 10.7753 81.9163 10.3475 82.4118 10.0428C82.9073 9.73815 83.4874 9.5858 84.1522 9.5858C84.817 9.5858 85.3971 9.73815 85.8926 10.0428C86.3881 10.3475 86.7728 10.7753 87.0467 11.3262C87.3207 11.8771 87.4576 12.5203 87.4576 13.2559C87.4576 13.9884 87.3207 14.6285 87.0467 15.1764C86.7728 15.7242 86.3881 16.1504 85.8926 16.4551C85.3971 16.7598 84.817 16.9122 84.1522 16.9122ZM84.1568 15.7534C84.5877 15.7534 84.9447 15.6395 85.2279 15.4118C85.511 15.1841 85.7203 14.8809 85.8557 14.5024C85.9942 14.1238 86.0634 13.7068 86.0634 13.2513C86.0634 12.7989 85.9942 12.3834 85.8557 12.0048C85.7203 11.6232 85.511 11.317 85.2279 11.0862C84.9447 10.8553 84.5877 10.7399 84.1568 10.7399C83.7229 10.7399 83.3628 10.8553 83.0766 11.0862C82.7934 11.317 82.5826 11.6232 82.4441 12.0048C82.3087 12.3834 82.241 12.7989 82.241 13.2513C82.241 13.7068 82.3087 14.1238 82.4441 14.5024C82.5826 14.8809 82.7934 15.1841 83.0766 15.4118C83.3628 15.6395 83.7229 15.7534 84.1568 15.7534ZM93.4902 13.8283V9.67813H94.8751V16.769H93.5179V15.5411H93.444C93.2809 15.9196 93.0193 16.2351 92.6592 16.4874C92.3022 16.7367 91.8575 16.8614 91.3251 16.8614C90.8696 16.8614 90.4664 16.7613 90.1155 16.5613C89.7678 16.3582 89.4939 16.0581 89.2938 15.6611C89.0968 15.2641 88.9984 14.7732 88.9984 14.1884V9.67813H90.3787V14.0222C90.3787 14.5054 90.5126 14.8901 90.7803 15.1764C91.0481 15.4626 91.3958 15.6057 91.8236 15.6057C92.0822 15.6057 92.3391 15.5411 92.5946 15.4118C92.8531 15.2825 93.067 15.0871 93.2363 14.8255C93.4086 14.5639 93.4933 14.2315 93.4902 13.8283Z" fill="#3764C2"/>
<path d="M96.8406 16.769V7.3145H102.704V8.54248H98.2671V11.4232H102.283V12.6465H98.2671V16.769H96.8406ZM104.347 16.769V9.67813H105.727V16.769H104.347ZM105.044 8.58403C104.804 8.58403 104.598 8.50401 104.425 8.34397C104.256 8.18086 104.172 7.98696 104.172 7.7623C104.172 7.53455 104.256 7.34066 104.425 7.18062C104.598 7.0175 104.804 6.93595 105.044 6.93595C105.284 6.93595 105.489 7.0175 105.658 7.18062C105.83 7.34066 105.917 7.53455 105.917 7.7623C105.917 7.98696 105.83 8.18086 105.658 8.34397C105.489 8.50401 105.284 8.58403 105.044 8.58403ZM108.674 9.67813L110.239 12.4388L111.818 9.67813H113.327L111.116 13.2236L113.346 16.769H111.836L110.239 14.1192L108.646 16.769H107.132L109.339 13.2236L107.16 9.67813H108.674Z" fill="#2FC0D3"/>
<path d="M9.39514 11.0019C9.45268 10.6201 9.57926 10.2846 9.74038 9.99533C9.90149 9.70609 10.1316 9.46312 10.4193 9.278C10.6955 9.10445 11.0408 9.02346 11.4666 9.01189C11.7313 9.02346 11.9729 9.06974 12.1916 9.1623C12.4217 9.26643 12.6289 9.40527 12.79 9.57882C12.9511 9.75237 13.0777 9.96062 13.1813 10.192C13.2848 10.4234 13.3309 10.678 13.3424 10.9325H15.4023C15.3793 10.3887 15.2757 9.8912 15.0801 9.43998C14.8844 8.98875 14.6198 8.59537 14.2745 8.27142C13.9293 7.94746 13.515 7.69292 13.0317 7.5078C12.5483 7.32268 12.019 7.2417 11.4321 7.2417C10.684 7.2417 10.0281 7.36896 9.47569 7.63507C8.92331 7.90118 8.46299 8.24828 8.09473 8.6995C7.72648 9.15073 7.45029 9.67138 7.27767 10.273C7.10505 10.8746 7.00147 11.4994 7.00147 12.1705V12.4829C7.00147 13.1539 7.09354 13.7787 7.26616 14.3803C7.43878 14.982 7.71497 15.5026 8.08322 15.9423C8.45148 16.3819 8.9118 16.7406 9.46418 16.9951C10.0166 17.2497 10.6725 17.3885 11.4205 17.3885C11.9614 17.3885 12.4678 17.2959 12.9396 17.1224C13.4114 16.9488 13.8257 16.7059 14.1825 16.3935C14.5392 16.0811 14.8269 15.7224 15.0341 15.3059C15.2412 14.8894 15.3678 14.4497 15.3793 13.9754H13.3194C13.3079 14.2184 13.2503 14.4382 13.1467 14.6464C13.0432 14.8547 12.9051 15.0282 12.7325 15.1787C12.5598 15.3291 12.3642 15.4448 12.134 15.5258C11.9154 15.6067 11.6852 15.6299 11.4436 15.6414C11.0293 15.6299 10.684 15.5489 10.4193 15.3753C10.1316 15.1902 9.90149 14.9473 9.74038 14.658C9.57926 14.3688 9.45268 14.0217 9.39514 13.6399C9.3376 13.258 9.30307 12.8647 9.30307 12.4829V12.1705C9.30307 11.7655 9.3376 11.3837 9.39514 11.0019ZM11.6047 0.750977C5.25226 0.750977 0.0966797 5.9343 0.0966797 12.3209C0.0966797 18.7075 5.25226 23.8908 11.6047 23.8908C17.9571 23.8908 23.1127 18.7075 23.1127 12.3209C23.1127 5.9343 17.9571 0.750977 11.6047 0.750977ZM11.6047 21.5768C6.52965 21.5768 2.39828 17.4232 2.39828 12.3209C2.39828 7.21856 6.52965 3.06496 11.6047 3.06496C16.6797 3.06496 20.8111 7.21856 20.8111 12.3209C20.8111 17.4232 16.6797 21.5768 11.6047 21.5768Z" fill="#3764C2"/>
<path d="M27.7137 14.7418C28.5457 14.0225 29.2001 13.4332 29.6767 12.9738C30.1621 12.5058 30.5651 12.0205 30.8857 11.5178C31.2064 11.0152 31.3667 10.5125 31.3667 10.0098C31.3667 9.48984 31.2411 9.0825 30.9897 8.78784C30.7471 8.49317 30.3614 8.34584 29.8327 8.34584C29.3214 8.34584 28.9227 8.5105 28.6367 8.83984C28.3594 9.1605 28.2121 9.59384 28.1947 10.1398H26.7647C26.7907 9.15184 27.0854 8.39784 27.6487 7.87784C28.2207 7.34917 28.9444 7.08484 29.8197 7.08484C30.7644 7.08484 31.5011 7.34484 32.0297 7.86484C32.5671 8.38484 32.8357 9.07817 32.8357 9.94484C32.8357 10.5688 32.6754 11.1712 32.3547 11.7518C32.0427 12.3238 31.6657 12.8395 31.2237 13.2988C30.7904 13.7495 30.2357 14.2738 29.5597 14.8718L28.9747 15.3918H33.0957V16.6268H26.7777V15.5478L27.7137 14.7418ZM35.0477 11.8948C35.0477 10.3955 35.299 9.2255 35.8017 8.38484C36.313 7.5355 37.1883 7.11084 38.4277 7.11084C39.667 7.11084 40.538 7.5355 41.0407 8.38484C41.552 9.2255 41.8077 10.3955 41.8077 11.8948C41.8077 13.4115 41.552 14.5988 41.0407 15.4568C40.538 16.3062 39.667 16.7308 38.4277 16.7308C37.1883 16.7308 36.313 16.3062 35.8017 15.4568C35.299 14.5988 35.0477 13.4115 35.0477 11.8948ZM40.3517 11.8948C40.3517 11.1928 40.304 10.5992 40.2087 10.1138C40.122 9.6285 39.94 9.23417 39.6627 8.93084C39.3853 8.61884 38.9737 8.46284 38.4277 8.46284C37.8817 8.46284 37.47 8.61884 37.1927 8.93084C36.9153 9.23417 36.729 9.6285 36.6337 10.1138C36.547 10.5992 36.5037 11.1928 36.5037 11.8948C36.5037 12.6228 36.547 13.2338 36.6337 13.7278C36.7203 14.2218 36.9023 14.6205 37.1797 14.9238C37.4657 15.2272 37.8817 15.3788 38.4277 15.3788C38.9737 15.3788 39.3853 15.2272 39.6627 14.9238C39.9487 14.6205 40.135 14.2218 40.2217 13.7278C40.3083 13.2338 40.3517 12.6228 40.3517 11.8948ZM44.8448 14.7418C45.6768 14.0225 46.3311 13.4332 46.8078 12.9738C47.2931 12.5058 47.6961 12.0205 48.0168 11.5178C48.3375 11.0152 48.4978 10.5125 48.4978 10.0098C48.4978 9.48984 48.3721 9.0825 48.1208 8.78784C47.8781 8.49317 47.4925 8.34584 46.9638 8.34584C46.4525 8.34584 46.0538 8.5105 45.7678 8.83984C45.4905 9.1605 45.3431 9.59384 45.3258 10.1398H43.8958C43.9218 9.15184 44.2165 8.39784 44.7798 7.87784C45.3518 7.34917 46.0755 7.08484 46.9508 7.08484C47.8955 7.08484 48.6321 7.34484 49.1608 7.86484C49.6981 8.38484 49.9668 9.07817 49.9668 9.94484C49.9668 10.5688 49.8065 11.1712 49.4858 11.7518C49.1738 12.3238 48.7968 12.8395 48.3548 13.2988C47.9215 13.7495 47.3668 14.2738 46.6908 14.8718L46.1058 15.3918H50.2268V16.6268H43.9088V15.5478L44.8448 14.7418ZM52.1787 11.8948C52.1787 10.3955 52.4301 9.2255 52.9327 8.38484C53.4441 7.5355 54.3194 7.11084 55.5587 7.11084C56.7981 7.11084 57.6691 7.5355 58.1717 8.38484C58.6831 9.2255 58.9387 10.3955 58.9387 11.8948C58.9387 13.4115 58.6831 14.5988 58.1717 15.4568C57.6691 16.3062 56.7981 16.7308 55.5587 16.7308C54.3194 16.7308 53.4441 16.3062 52.9327 15.4568C52.4301 14.5988 52.1787 13.4115 52.1787 11.8948ZM57.4827 11.8948C57.4827 11.1928 57.4351 10.5992 57.3397 10.1138C57.2531 9.6285 57.0711 9.23417 56.7937 8.93084C56.5164 8.61884 56.1047 8.46284 55.5587 8.46284C55.0127 8.46284 54.6011 8.61884 54.3237 8.93084C54.0464 9.23417 53.8601 9.6285 53.7647 10.1138C53.6781 10.5992 53.6347 11.1928 53.6347 11.8948C53.6347 12.6228 53.6781 13.2338 53.7647 13.7278C53.8514 14.2218 54.0334 14.6205 54.3107 14.9238C54.5967 15.2272 55.0127 15.3788 55.5587 15.3788C56.1047 15.3788 56.5164 15.2272 56.7937 14.9238C57.0797 14.6205 57.2661 14.2218 57.3527 13.7278C57.4394 13.2338 57.4827 12.6228 57.4827 11.8948Z" fill="#3764C2"/>
</svg>
