<svg width="221" height="46" viewBox="0 0 221 46" fill="none" xmlns="http://www.w3.org/2000/svg">
<rect x="57.1362" y="0.103516" width="45.0313" height="45.2736" rx="22.5156" fill="#002D8B"/>
<path d="M71.6096 12.1763C70.2482 12.1763 69.1445 13.257 69.1445 14.5902C69.1445 15.9234 70.2482 17.0042 71.6096 17.0042C72.971 17.0042 74.0747 15.9234 74.0747 14.5902C74.0747 13.257 72.971 12.1763 71.6096 12.1763Z" fill="white"/>
<path d="M69.2895 18.9921C69.2095 18.9921 69.1445 19.0557 69.1445 19.1341V33.9018C69.1445 33.9802 69.2095 34.0438 69.2895 34.0438H73.9296C74.0097 34.0438 74.0747 33.9802 74.0747 33.9018V19.1341C74.0747 19.0557 74.0097 18.9921 73.9296 18.9921H69.2895Z" fill="white"/>
<path d="M76.8297 18.9921C76.7496 18.9921 76.6847 19.0557 76.6847 19.1341V33.9018C76.6847 33.9802 76.7496 34.0438 76.8297 34.0438H81.4698C81.5499 34.0438 81.6148 33.9802 81.6148 33.9018V25.95C81.6148 25.3851 81.844 24.8433 82.2519 24.4439C82.6598 24.0444 83.213 23.82 83.7899 23.82C84.3667 23.82 84.92 24.0444 85.3279 24.4439C85.7358 24.8433 85.9649 25.3851 85.9649 25.95V33.9018C85.9649 33.9802 86.0299 34.0438 86.1099 34.0438H90.7501C90.8301 34.0438 90.8951 33.9802 90.8951 33.9018V24.11C90.8951 21.3533 88.4467 19.1966 85.6457 19.446C84.7819 19.5229 83.9279 19.7331 83.1304 20.0678L81.6148 20.7039V19.1341C81.6148 19.0557 81.5499 18.9921 81.4698 18.9921H76.8297Z" fill="white"/>
<rect x="114.176" y="0.103516" width="45.0313" height="45.2736" rx="22.5156" fill="#002D8B"/>
<path d="M137.06 18.4964C134.936 18.4964 133.215 20.2242 133.215 22.3557C133.215 24.4871 134.936 26.215 137.06 26.215C139.183 26.215 140.905 24.4871 140.905 22.3557C140.905 20.2242 139.183 18.4964 137.06 18.4964Z" fill="white"/>
<path fill-rule="evenodd" clip-rule="evenodd" d="M130.872 11.7651C134.951 11.3075 139.169 11.3075 143.248 11.7651C145.494 12.017 147.306 13.7933 147.569 16.0555C148.057 20.2413 148.057 24.47 147.569 28.6558C147.306 30.9181 145.494 32.6943 143.248 32.9462C139.169 33.4038 134.951 33.4038 130.872 32.9462C128.626 32.6943 126.814 30.9181 126.55 28.6558C126.063 24.47 126.063 20.2413 126.55 16.0555C126.814 13.7933 128.626 12.017 130.872 11.7651ZM142.975 15.2308C142.322 15.2308 141.792 15.7624 141.792 16.4183C141.792 17.0741 142.322 17.6057 142.975 17.6057C143.629 17.6057 144.158 17.0741 144.158 16.4183C144.158 15.7624 143.629 15.2308 142.975 15.2308ZM131.44 22.3557C131.44 19.2405 133.956 16.7151 137.06 16.7151C140.164 16.7151 142.68 19.2405 142.68 22.3557C142.68 25.4708 140.164 27.9962 137.06 27.9962C133.956 27.9962 131.44 25.4708 131.44 22.3557Z" fill="white"/>
<rect x="175.218" y="0.103516" width="45.0313" height="45.2736" rx="22.5156" fill="#002D8B"/>
<path d="M202.924 11.4219C200.295 11.4219 197.774 12.0057 195.916 13.045C194.057 14.0843 193.013 15.4939 193.013 16.9637V20.0491H187.709C187.443 20.0491 187.227 20.1698 187.227 20.3187V24.3926C187.227 24.5415 187.443 24.6622 187.709 24.6622H193.013V33.0198C193.013 33.1687 193.229 33.2894 193.495 33.2894H200.781C201.047 33.2894 201.263 33.1687 201.263 33.0198V24.6622H206.614C206.835 24.6622 207.028 24.578 207.081 24.458L208.903 20.3841C208.979 20.2139 208.749 20.0491 208.435 20.0491H201.263V16.9637C201.263 16.7174 201.438 16.4812 201.749 16.307C202.061 16.1329 202.483 16.035 202.924 16.035H208.495C208.761 16.035 208.977 15.9143 208.977 15.7654V11.6915C208.977 11.5426 208.761 11.4219 208.495 11.4219H202.924Z" fill="white"/>
<rect x="0.0966797" y="0.103516" width="45.0313" height="45.2736" rx="22.5156" fill="#002D8B"/>
<path d="M33.8345 15.1677C33.8991 15.0592 33.8036 14.9192 33.7003 14.9674C32.9657 15.3103 32.1981 15.5417 31.415 15.6557C32.2869 15.0283 32.9597 14.0733 33.3328 12.9426C33.3708 12.8274 33.2664 12.7245 33.1763 12.7844C32.3659 13.3235 31.492 13.7116 30.5841 13.9352C30.5461 13.9445 30.5069 13.929 30.4803 13.895C29.799 13.0292 28.9022 12.4527 27.9245 12.2534C26.9263 12.05 25.9003 12.2514 25.0074 12.8261C24.1144 13.4007 23.4051 14.316 22.9906 15.4285C22.5966 16.4863 22.4902 17.6655 22.6846 18.7979C22.6997 18.8857 22.6426 18.9687 22.5682 18.9631C20.8018 18.831 19.076 18.2651 17.497 17.2995C15.922 16.3364 14.5273 14.9966 13.3979 13.3626C13.3477 13.2901 13.2527 13.2995 13.2162 13.383C12.8648 14.1863 12.6807 15.0816 12.6812 15.9915C12.6798 16.8973 12.8644 17.7894 13.2185 18.5885C13.5725 19.3876 14.0852 20.0688 14.7107 20.5715C14.0473 20.5498 13.3969 20.3523 12.8053 19.9941C12.7291 19.9479 12.6376 20.0137 12.6416 20.1163C12.6877 21.3107 13.0517 22.5097 13.6818 23.4296C14.3524 24.4086 15.2831 25.0786 16.3165 25.3262C15.9187 25.472 15.5057 25.5489 15.0899 25.5545C14.8636 25.5513 14.6377 25.5312 14.4136 25.4943C14.3305 25.4806 14.2627 25.5757 14.2917 25.6704C14.6 26.6744 15.1445 27.5504 15.8605 28.1899C16.626 28.8736 17.5493 29.2528 18.5021 29.2749C16.8932 30.7997 14.9069 31.6319 12.8597 31.6388C12.6493 31.6396 12.439 31.6314 12.2293 31.6142C12.1111 31.6045 12.0567 31.7942 12.1586 31.867C14.1533 33.2928 16.4331 34.0464 18.7586 34.043C20.4755 34.0645 22.1787 33.6737 23.7688 32.8934C25.359 32.1131 26.8041 30.959 28.0197 29.4986C29.2354 28.0381 30.1972 26.3005 30.8491 24.3872C31.501 22.474 31.8298 20.4234 31.8164 18.3554V17.7109C31.8164 17.6685 31.8331 17.6287 31.8612 17.6031C32.6175 16.9152 33.2827 16.094 33.8345 15.1677Z" fill="white"/>
</svg>
