<svg width="25" height="25" viewBox="0 0 25 25" fill="none" xmlns="http://www.w3.org/2000/svg">
<g clip-path="url(#clip0_10_198)">
<path d="M4.16667 3.09948H20.8333C21.1096 3.09948 21.3746 3.20833 21.5699 3.40208C21.7653 3.59584 21.875 3.85862 21.875 4.13263V20.6632C21.875 20.9372 21.7653 21.2 21.5699 21.3937C21.3746 21.5875 21.1096 21.6963 20.8333 21.6963H4.16667C3.8904 21.6963 3.62545 21.5875 3.4301 21.3937C3.23475 21.2 3.125 20.9372 3.125 20.6632V4.13263C3.125 3.85862 3.23475 3.59584 3.4301 3.40208C3.62545 3.20833 3.8904 3.09948 4.16667 3.09948ZM11.4615 16.5305L18.826 9.22507L17.3531 7.76419L11.4615 13.6088L8.51458 10.686L7.04167 12.1468L11.4615 16.5305Z" fill="#001A72"/>
</g>
<defs>
<clipPath id="clip0_10_198">
<rect width="25" height="24.7958" fill="white"/>
</clipPath>
</defs>
</svg>
