<svg width="25" height="25" viewBox="0 0 25 25" fill="none" xmlns="http://www.w3.org/2000/svg">
<g clip-path="url(#clip0_10_192)">
<path d="M2.08325 22.7295C2.08325 20.5374 2.96123 18.4351 4.52403 16.8851C6.08683 15.335 8.20645 14.4642 10.4166 14.4642C12.6267 14.4642 14.7463 15.335 16.3091 16.8851C17.8719 18.4351 18.7499 20.5374 18.7499 22.7295H2.08325ZM10.4166 13.4311C6.96346 13.4311 4.16659 10.657 4.16659 7.23211C4.16659 3.80719 6.96346 1.03316 10.4166 1.03316C13.8697 1.03316 16.6666 3.80719 16.6666 7.23211C16.6666 10.657 13.8697 13.4311 10.4166 13.4311ZM18.0864 15.7381C19.6798 16.1443 21.1033 17.0387 22.1544 18.294C23.2055 19.5492 23.8306 21.1014 23.9405 22.7295H20.8333C20.8333 20.0329 19.7916 17.5782 18.0864 15.7381ZM15.9791 13.3866C16.852 12.6123 17.5501 11.6637 18.0276 10.603C18.5051 9.54241 18.7512 8.39367 18.7499 7.23211C18.7521 5.82026 18.388 4.4316 17.6926 3.19969C18.8725 3.43483 19.9338 4.06793 20.6962 4.99139C21.4587 5.91485 21.8752 7.07169 21.8749 8.26527C21.8752 9.00136 21.7168 9.729 21.4104 10.3994C21.1041 11.0699 20.6567 11.6676 20.0984 12.1526C19.5401 12.6375 18.8837 12.9985 18.1733 13.2114C17.4628 13.4242 16.7147 13.484 15.9791 13.3866Z" fill="#001A72"/>
</g>
<defs>
<clipPath id="clip0_10_192">
<rect width="25" height="24.7958" fill="white"/>
</clipPath>
</defs>
</svg>
